# xmcd
#
# Track frame offsets:
#	150
#	24518
#	37409
#	55844
#	67971
#	80527
#	96596
#	116166
#	134978
#	147142
#	158918
#	170332
#	186851
#	211187
#	228749
#	241908
#	255845
#	269253
#	283451
#	298642
#	309127
#	313478
#	319792
#
# Disc length: 4600 seconds
#
# Revision: 0
# Processed by: cddbd v1.5.1PL2 Copyright (c) Steve Scherf et al.
# Submitted via: EasyCDDAExtractor 9.0.0.1
#
DISCID=6411f617
DTITLE=Dolly Parton - Heartsongs - Live From Home
DYEAR=1994
DGENRE=Country
TTITLE0=Heartsong
TTITLE1=I'm Thinking Tonight Of My Blue Eyes
TTITLE2=Mary Of The Wild Moor
TTITLE3=In The Pines
TTITLE4=My Blue Tears
TTITLE5=Applejack
TTITLE6=Coat Of Many Colors
TTITLE7=Smoky Mountain Memories
TTITLE8=Night Train To Memphis
TTITLE9=What A Friend We Have In Jesus
TTITLE10=Hold Fast To The Right
TTITLE11=Walter Henry Hagan
TTITLE12=Barbara Allen
TTITLE13=Brave Little Soldier
TTITLE14=To Daddy
TTITLE15=True Blue
TTITLE16=Longer Than Always
TTITLE17=Wayfaring Stranger
TTITLE18=My Tennessee Mountain Home
TTITLE19=Heartsong (Reprise)
TTITLE20=Cas Walker Theme
TTITLE21=Black Draught Theme
TTITLE22=PMS Blues
EXTD=UPC 074646612323\nmore info\nMillenniumMusicProjectFormat, syntax as foll
EXTD=ows:\nTitle{Subtitle}[info](Lyricist;Composer;Date,Artist,Location)[info]
EXTD=\ncorrections to: windking3@yahoo.com\n
EXTT0=
EXTT1=
EXTT2=
EXTT3=
EXTT4=
EXTT5=
EXTT6=
EXTT7=
EXTT8=
EXTT9=
EXTT10=
EXTT11=
EXTT12=
EXTT13=
EXTT14=
EXTT15=
EXTT16=
EXTT17=
EXTT18=
EXTT19=
EXTT20=
EXTT21=
EXTT22=
PLAYORDER=
